<?xml version="1.0" encoding="UTF-8" standalone="no"?>
<!-- Generator: Adobe Illustrator 18.0.0, SVG Export Plug-In . SVG Version: 6.00 Build 0)  -->

<svg
   xmlns:dc="http://purl.org/dc/elements/1.1/"
   xmlns:cc="http://creativecommons.org/ns#"
   xmlns:rdf="http://www.w3.org/1999/02/22-rdf-syntax-ns#"
   xmlns:svg="http://www.w3.org/2000/svg"
   xmlns="http://www.w3.org/2000/svg"
   xmlns:sodipodi="http://sodipodi.sourceforge.net/DTD/sodipodi-0.dtd"
   xmlns:inkscape="http://www.inkscape.org/namespaces/inkscape"
   version="1.1"
   id="Capa_1"
   x="0px"
   y="0px"
   viewBox="0 0 444.676 418.047"
   xml:space="preserve"
   inkscape:version="0.91 r13725"
   sodipodi:docname="drums.svg"
   width="444.67599"
   height="418.047"><metadata
     id="metadata39"><rdf:RDF><cc:Work
         rdf:about=""><dc:format>image/svg+xml</dc:format><dc:type
           rdf:resource="http://purl.org/dc/dcmitype/StillImage" /><dc:title></dc:title></cc:Work></rdf:RDF></metadata><defs
     id="defs37" /><sodipodi:namedview
     pagecolor="#ffffff"
     bordercolor="#666666"
     borderopacity="1"
     objecttolerance="10"
     gridtolerance="10"
     guidetolerance="10"
     inkscape:pageopacity="0"
     inkscape:pageshadow="2"
     inkscape:window-width="1366"
     inkscape:window-height="701"
     id="namedview35"
     showgrid="false"
     inkscape:zoom="0.75055637"
     inkscape:cx="270.75994"
     inkscape:cy="259.82888"
     inkscape:window-x="0"
     inkscape:window-y="27"
     inkscape:window-maximized="1"
     inkscape:current-layer="Capa_1" /><path
     d="m 443.305,356.242 -75.462,-65.811 0,-228.753 c 34.605,-3.688 68.305,-15.166 66.799,-30.356 -0.597,-6.007 -6.243,-10.604 -16.783,-13.664 -8.872,-2.575 -20.751,-3.937 -34.354,-3.937 -5.092,0 -10.341,0.202 -15.662,0.585 l 0,-10.3049999 c 0,-2.209 -1.791,-3.99999997 -4,-3.99999997 -2.209,0 -4,1.79099997 -4,3.99999997 l 0,11.0179999 c -34.606,3.688 -68.305,15.167 -66.798,30.357 0.597,6.007 6.242,10.604 16.781,13.663 8.871,2.575 20.749,3.938 34.352,3.938 l 0.003,0 c 5.092,0 10.34,-0.202 15.662,-0.586 l 0,228.04 -42.87,37.383 c 0.432,-3.701 0.661,-7.463 0.661,-11.278 l 0,-26.898 c 0,-22.103 -7.454,-42.491 -19.97,-58.802 l 0,-29.983 55.909,0 c 2.209,0 4,-1.791 4,-4 l 0,-41.08 c 0,-2.209 -1.791,-4 -4,-4 l -34.173,0 c 0.552,-1.329 0.71,-2.741 0.288,-4.23 l 0,-0.001 0.003,-0.001 -13.256,-46.762 c -1.653,-5.832005 -10.19,-6.060005 -16.461,-5.716005 -7.653,0.414 -17.413,2.214 -27.48,5.067005 -6.762,1.917 -40.328,12.063 -37.056,23.608 l 3.31,11.678 -16.358,0 2.541,-13.441 c 2.644,-13.998 -42.415,-22.935005 -47.562,-23.907005 -5.147,-0.972 -50.35,-9.1 -52.996,4.899005 l -6.003,31.757 c -9.059,0.301 -17.428,0.882 -24.288,1.681 l 0,-57.183005 L 95.517,67.9 c 1.454,0.258 2.915,0.507 4.385,0.744 14.118,2.283 28.252,3.489 40.874,3.489 13.361,0 24.872,-1.334 33.289,-3.858 9.996,-2.998 15.563,-7.6 16.545,-13.677 1.365,-8.449 -6.784,-17.141 -23.567,-25.137 -15.132,-7.209 -35.763,-13.168 -58.092,-16.777 -0.175,-0.028 -0.35,-0.052 -0.524,-0.08 l 0,-8.6039999 c 0,-2.209 -1.791,-3.99999997304695 -4,-3.99999997304695 -2.209,0 -4,1.79099997304695 -4,3.99999997304695 l 0,7.4469999 C 89.199,9.9750001 78.155,9.1940001 68.077,9.1940001 54.716,9.1940001 43.205,10.528 34.788,13.052 c -9.996,2.998 -15.563,7.6 -16.545,13.677 -1.365,8.449 6.784,17.141 23.567,25.137 11.935,5.686 27.297,10.588 44.208,14.179 l -61.242,60.636 c -1.569,1.555 -1.582,4.087 -0.028,5.657 0.782,0.79 1.813,1.186 2.843,1.186 1.017,0 2.034,-0.386 2.814,-1.157 l 45.678,-45.226005 0,50.412005 c -8.131,1.442 -13.047,3.447 -13.047,7.844 l 0,92.362 c 0,3.899 3.559,6.159 13.047,7.849 l 0,45.474 -74.712,65.16 c -1.665,1.452 -1.838,3.979 -0.386,5.644 0.791,0.907 1.9,1.371 3.017,1.371 0.933,0 1.869,-0.324 2.627,-0.985 l 50.475,-44.02 18.979,10.217 0,10.264 c 0,2.209 1.791,4 4,4 2.209,0 4,-1.791 4,-4 l 0,-9.457 20.477,-11.023 21.667,18.897 c 10e-4,0.007 0.003,0.014 0.005,0.02 l -23.344,75.697 c -0.651,2.111 0.532,4.35 2.644,5.001 0.393,0.121 0.789,0.179 1.18,0.179 1.709,0 3.291,-1.104 3.821,-2.822 l 19.825,-64.285 c 13.905,36.442 49.199,62.407 90.466,62.407 41.685,0 77.301,-26.483 90.908,-63.507 l 20.165,65.385 c 0.53,1.719 2.112,2.822 3.821,2.822 0.39,0 0.787,-0.058 1.18,-0.179 2.111,-0.651 3.295,-2.89 2.644,-5.001 l -22.874,-74.171 23.447,-20.446 19.73,10.621 0,10.621 c 0,2.209 1.791,4 4,4 2.209,0 4,-1.791 4,-4 l 0,-10.621 19.729,-10.62 50.475,44.02 c 0.758,0.661 1.694,0.985 2.627,0.985 1.116,0 2.226,-0.464 3.017,-1.371 1.45,-1.664 1.277,-4.191 -0.388,-5.643 z M 76.083,319.383 63.546,312.633 76.083,301.699 Z m 0,-81.898 c -2.302,-0.449 -4.006,-0.905 -5.047,-1.34 l 0,-84.006 c 1.496,0.408 3.197,0.762 5.047,1.09 z m 261.521,-77.713 11.97,0 0,33.08 -11.97,0 z m -8,0 0,33.08 -66.174,0 0,-17.507 c 5.894,-0.866 12.478,-2.295 19.198,-4.2 10.065,-2.854 19.316,-6.442 26.048,-10.104 0.724,-0.394 1.477,-0.818 2.233,-1.269 z m -39.94,41.08 0,20.812 c -8.624,-8.729 -18.88,-15.842 -30.283,-20.812 z m -34.234,-24.659 0,16.658 -11.97,0 0,-17.732 c 3.113,1.174 6.822,1.184 8.511,1.184 l 0.001,0 c 1.091,0 2.25,-0.039 3.458,-0.11 z m 54.335,-34.338 c -1.373,-0.113 -2.578,-0.117 -3.353,-0.117 -7.918,0 -19.092,1.88 -30.657,5.158 -4.701,1.332 -22.342,6.643 -31.572,13.632 l -4.851,-17.113 5.073,0 c 2.209,0 4,-1.791 4,-4 0,-2.209 -1.791,-4 -4,-4 l -6.793,0 c 2.584,-2.777 12.92,-8.813 30.938,-13.921 19.132,-5.424 31.465,-5.416 34.254,-4.191 z m -84.945,1.56 6.196,0 4.443,15.674 0,34.859 c -3.49,-0.532 -7.039,-0.883 -10.64,-1.03 l 0,-49.503 z m 83.69,132.121 c -15.465,-32.943 -48.953,-55.812 -87.688,-55.812 -38.74,0 -72.232,22.876 -87.694,55.825 6.772,-42.297 43.516,-74.72 87.697,-74.72 44.172,0 80.909,32.416 87.685,74.707 z m -91.69,-132.121 0,49.503 c -11.964,0.489 -23.37,3.169 -33.84,7.632 l 0,-11.312 c 12.953,-0.166 19.766,-2.824 20.769,-8.127 l 0,-0.002 0.004,0.001 7.126,-37.695 z M 119.612,118.33 c 2.612,-2.056 17.938,-3.833 43.73,1.043 25.802,4.877 39.423,12.126 41.105,14.994 l -0.198,1.049 -7.951,0 c -2.209,0 -4,1.791 -4,4 0,2.209 1.791,4 4,4 l 6.439,0 -5.227,27.648 c -3.084,-2.08 -6.499,-3.562 -8.276,-4.332 -8.644,-3.745 -20.378,-7.127 -33.04,-9.521 -11.097,-2.097 -22.083,-3.252 -30.935,-3.252 -5.086,0 -9.27,0.364 -12.588,1.095 z m -35.529,36.051 c 10.349805,1.60569 14.14351,1.47562 20.284,1.528 l -1.17,6.191 0,0 0,0.002 c -1.413,7.477 10.576,12.672 14.516,14.379 8.644,3.745 20.377,7.127 33.039,9.521 8.439,1.595 16.808,2.641 24.229,3.052 l 0,15.35 c -15.529,8.384 -28.524,20.879 -37.504,36.028 -4.735,0.159 -9.587,0.244 -14.469,0.244 -16.335,0 -29.683,-0.858 -38.925,-1.976 z m 0,165.808 0,-19.796 14.034,12.241 z m 39.923,-30.552 c 0,0 0.004,26.256 0.004,26.898 0,2.826 0.129,5.621 0.367,8.386 l -40.294,-35.144 0,-43.021 c 10.584,1.239 24.338,1.92 38.925,1.92 3.41,0 6.804,-0.043 10.161,-0.12 -5.873,12.479 -9.163,26.402 -9.163,41.081 z m 235.837,30.149 -13.288,-7.154 13.288,-11.587 z m 8,0 0,-18.74 13.287,11.587 z"
     id="path3"
     style="fill:#ffffff;fill-opacity:1"
     inkscape:connector-curvature="0"
     sodipodi:nodetypes="cccccscssscccsscccssccsssscccccccccccsccccccscccccssscsccccccscccssccccscccsssccccscsccsccscscccssscccsccccccccccccccccccccccccccccccccssccscccssscsccccccccccscsccccccccccccccsssccccscccccccsccccscccccccscccscccccccccc" /><g
     id="g5"
     transform="translate(0,-26.628995)" /><g
     id="g7"
     transform="translate(0,-26.628995)" /><g
     id="g9"
     transform="translate(0,-26.628995)" /><g
     id="g11"
     transform="translate(0,-26.628995)" /><g
     id="g13"
     transform="translate(0,-26.628995)" /><g
     id="g15"
     transform="translate(0,-26.628995)" /><g
     id="g17"
     transform="translate(0,-26.628995)" /><g
     id="g19"
     transform="translate(0,-26.628995)" /><g
     id="g21"
     transform="translate(0,-26.628995)" /><g
     id="g23"
     transform="translate(0,-26.628995)" /><g
     id="g25"
     transform="translate(0,-26.628995)" /><g
     id="g27"
     transform="translate(0,-26.628995)" /><g
     id="g29"
     transform="translate(0,-26.628995)" /><g
     id="g31"
     transform="translate(0,-26.628995)" /><g
     id="g33"
     transform="translate(0,-26.628995)" /></svg>