<?xml version="1.0" encoding="UTF-8" standalone="no"?>
<!-- Generator: Adobe Illustrator 16.0.0, SVG Export Plug-In . SVG Version: 6.00 Build 0)  -->

<svg
   xmlns:dc="http://purl.org/dc/elements/1.1/"
   xmlns:cc="http://creativecommons.org/ns#"
   xmlns:rdf="http://www.w3.org/1999/02/22-rdf-syntax-ns#"
   xmlns:svg="http://www.w3.org/2000/svg"
   xmlns="http://www.w3.org/2000/svg"
   xmlns:sodipodi="http://sodipodi.sourceforge.net/DTD/sodipodi-0.dtd"
   xmlns:inkscape="http://www.inkscape.org/namespaces/inkscape"
   version="1.1"
   id="Capa_1"
   x="0px"
   y="0px"
   width="426.043"
   height="472.521"
   viewBox="0 0 426.043 472.521"
   xml:space="preserve"
   inkscape:version="0.91 r13725"
   sodipodi:docname="mic.svg"><metadata
     id="metadata41"><rdf:RDF><cc:Work
         rdf:about=""><dc:format>image/svg+xml</dc:format><dc:type
           rdf:resource="http://purl.org/dc/dcmitype/StillImage" /><dc:title></dc:title></cc:Work></rdf:RDF></metadata><defs
     id="defs39" /><sodipodi:namedview
     pagecolor="#ffffff"
     bordercolor="#666666"
     borderopacity="1"
     objecttolerance="10"
     gridtolerance="10"
     guidetolerance="10"
     inkscape:pageopacity="0"
     inkscape:pageshadow="2"
     inkscape:window-width="1366"
     inkscape:window-height="701"
     id="namedview37"
     showgrid="false"
     inkscape:zoom="0.49944871"
     inkscape:cx="36.039737"
     inkscape:cy="236.2605"
     inkscape:window-x="0"
     inkscape:window-y="27"
     inkscape:window-maximized="1"
     inkscape:current-layer="Capa_1" /><g
     id="g3"
     style="fill:#00cc99;fill-opacity:1"
     transform="translate(-23.239338,0)"><path
       d="M 436.578,159.876 C 400.721,153.482 366.777,136.527 339.74,109.532 312.732,82.51 295.796,48.585 289.425,12.72 c 36.306,-22.745 88.937,-14.689 125.391,21.753 36.43,36.442 44.481,89.082 21.762,125.403 z m -25.053,25.058 c -34.438,-9.625 -66.721,-27.482 -93.226,-53.96 -26.476,-26.505 -44.337,-58.787 -53.914,-93.211 -22.714,36.321 -14.659,88.934 21.754,125.374 36.455,36.426 89.052,44.495 125.386,21.797 z M 267.331,346.338 c -45.294,0 -77.679,28.306 -106.255,53.271 -31.571,27.601 -58.936,51.533 -99.197,39.124 -7.966,-5.866 -8.202,-10.66 -8.291,-12.288 -0.564,-10.902 12.644,-25.529 19.131,-30.92 0.8,-0.653 1.255,-1.54 1.881,-2.338 10.631,3.701 22.845,1.563 31.362,-6.931 L 312.2,216.486 C 295.142,209.245 278.887,198.763 264.718,184.575 250.526,170.389 240.075,154.116 232.846,137.09 L 63.093,343.347 c -7.552,7.551 -9.743,18.001 -7.685,27.713 -0.637,0.388 -1.349,0.564 -1.941,1.041 -3.244,2.665 -31.584,26.771 -30.177,55.762 0.504,10.193 4.947,24.908 23.352,37.229 l 3.629,1.773 c 11.803,3.939 22.803,5.656 33.141,5.656 40.335,0 70.424,-26.294 97.626,-50.077 26.934,-23.546 52.386,-45.784 86.294,-45.784 78.159,0 138.659,83.751 139.279,84.577 4.826,6.902 14.338,8.438 21.119,3.589 6.842,-4.831 8.438,-14.281 3.612,-21.114 -2.815,-3.972 -70.068,-97.374 -164.011,-97.374 z"
       id="path5"
       style="fill:#00cc99;fill-opacity:1"
       inkscape:connector-curvature="0" /></g><g
     id="g7" /><g
     id="g9" /><g
     id="g11" /><g
     id="g13" /><g
     id="g15" /><g
     id="g17" /><g
     id="g19" /><g
     id="g21" /><g
     id="g23" /><g
     id="g25" /><g
     id="g27" /><g
     id="g29" /><g
     id="g31" /><g
     id="g33" /><g
     id="g35" /></svg>